<svg width="92" height="92" viewBox="0 0 92 92" fill="none" xmlns="http://www.w3.org/2000/svg">
<path d="M0 7.88547C0 3.53031 3.53055 -0.000244141 7.88571 -0.000244141H84.1143C88.4694 -0.000244141 92 3.53031 92 7.88547V84.114C92 88.4692 88.4694 91.9998 84.1143 91.9998H7.88571C3.53055 91.9998 0 88.4692 0 84.114V7.88547Z" fill="url(#paint0_linear_14996_184727)"/>
<g opacity="0.2">
<path fill-rule="evenodd" clip-rule="evenodd" d="M57.1358 70.262C53.3812 71.2158 49.479 71.3419 46.7456 71.1182C28.3549 69.4817 25.5509 63.9036 25.0021 59.4332V37.6498C24.4533 33.5984 24.3335 29.6369 25.3115 25.835C26.5342 8.67985 38.3045 3.182 45.4371 2.36697L45.5971 1.95604L44.5893 1.9261C32.1658 1.65668 21.9277 11.4557 21.6483 23.9191L21.5984 26.3239C21.4088 26.5036 21.2392 26.6931 21.0696 26.9027C20.4609 27.691 20.0916 28.6989 20.0617 29.6169C20.0617 30.1507 20.0542 30.6921 20.0467 31.2334C20.0393 31.7748 20.0318 32.3161 20.0318 32.85V32.9697C20.0018 34.0075 20.0018 35.0153 20.0018 36.0131V36.0132C19.9719 36.9313 20.3112 37.5699 20.7902 37.959C20.9398 38.0888 21.1294 38.1786 21.329 38.2484L20.9099 57.7567C20.9099 58.6448 21.0296 61.4389 21.1793 62.327C22.5464 66.1089 24.7118 67.5957 28.6134 69.4218C32.5151 71.2479 37.5044 72.0761 42.8031 72.2557H42.863H43.0426C43.2222 72.2857 43.4717 72.2857 43.771 72.2857C44.3797 72.2857 45.2678 72.2857 46.2956 72.2557C48.4011 72.1659 51.1951 71.8865 54.0291 71.2179C55.0651 70.9598 56.1135 70.6472 57.1358 70.262ZM65.5591 -6.86412C65.5989 -6.96839 65.6351 -7.07259 65.6642 -7.17444L66.243 -8.70117L64.816 -8.18228C64.3869 -8.0326 63.8381 -7.81307 63.2593 -7.57358C61.4033 -6.8152 58.8987 -5.65768 56.2843 -4.0112C53.0461 -1.97309 49.6747 0.776046 47.211 4.37502C47.2108 4.37859 47.2106 4.38218 47.2104 4.38576C47.0731 6.83136 46.8748 10.3625 47.2745 12.0046C52.7439 -0.0426741 60.4704 -5.11216 65.5591 -6.86412Z" fill="#0F3793"/>
<path fill-rule="evenodd" clip-rule="evenodd" d="M24.9398 26.1046L24.9997 23.4203C25.2691 10.9669 35.5072 1.1579 47.9407 1.42733L48.9485 1.45726L48.5793 2.40523C47.6014 4.95977 47.0526 7.79371 47.2421 10.9071H47.4218C49.1281 3.65257 54.5465 -1.30683 59.6356 -4.50998C62.26 -6.15646 64.7547 -7.31398 66.6107 -8.07236C67.1895 -8.31185 67.7383 -8.53138 68.1674 -8.68106L69.5944 -9.19995L69.0156 -7.67322C68.9557 -7.46366 68.8659 -7.24413 68.7761 -7.03458C68.2871 -5.6675 67.6784 -3.74162 67.1895 -1.45651C66.2415 3.11372 65.8224 9.05102 67.9479 14.659V14.689C69.285 17.6426 69.9935 20.9356 69.8937 24.4381L69.8338 26.6933L68.4368 25.905L68.4668 24.4082V24.3783C68.5566 21.0554 67.888 17.9819 66.6407 15.2079V15.1779L66.6107 15.118C64.3256 9.18074 64.8146 2.90417 65.7925 -1.75587C66.2216 -3.73164 66.7405 -5.438 67.1895 -6.78511C67.1596 -6.78511 67.1296 -6.75518 67.1296 -6.75518C65.3335 -6.02674 62.8987 -4.89915 60.3641 -3.31254C55.275 -0.119369 50.0661 4.78015 48.6691 11.7852L48.5494 12.3939L45.925 12.2442L45.8651 11.6355C45.5957 8.43235 46.0148 5.5086 46.9029 2.86425C35.6968 3.13368 26.6163 12.1544 26.3768 23.4901L26.3468 25.3761L24.9398 26.1046ZM26.0974 37.5601L25.6683 57.2679C25.6383 58.0862 25.7581 60.7704 25.9078 61.5288C26.2171 63.1154 28.9513 65.8895 32.5436 67.5859C36.1658 69.2922 40.9556 70.1105 46.1944 70.3H46.2243H46.2543C46.2842 70.3 46.3441 70.3 46.4339 70.3C46.5836 70.3 46.833 70.3 47.1324 70.33C47.7111 70.33 48.5593 70.33 49.5971 70.3C51.6427 70.2102 54.347 69.9608 57.0612 69.3221C59.7754 68.6536 62.4496 67.6158 64.4354 65.9693C66.3812 64.3228 67.6984 62.0976 67.7583 58.9942L68.2173 38.069H69.6243L69.1653 59.0242C69.1054 62.5865 67.5787 65.181 65.3235 67.067C63.0982 68.923 60.2044 70.0206 57.4004 70.7191C54.5665 71.3877 51.7625 71.6671 49.667 71.7569C48.6292 71.7869 47.7511 71.7869 47.1424 71.7869C46.833 71.7869 46.5935 71.7869 46.4139 71.7569C46.3241 71.7569 46.2642 71.7569 46.2343 71.7569H46.1744C40.8758 71.5773 35.8765 70.7491 31.9848 68.923C28.0931 67.0969 25.9277 65.6001 24.5507 61.8282C24.401 60.9401 24.2812 58.146 24.2812 57.2579L24.7103 37.3705L26.0974 37.5601Z" fill="#0F3793"/>
<path d="M70.5327 27.0226C69.924 26.2043 69.1058 25.6555 68.2476 25.406C54.6367 21.7838 40.4071 21.5942 26.7264 24.8273C25.8383 25.0069 25.02 25.6156 24.4113 26.4139C23.8027 27.2022 23.4334 28.2101 23.4035 29.1281C23.4035 30.1958 23.3736 31.2935 23.3736 32.3612V32.4809C23.3436 33.5187 23.3436 34.5266 23.3436 35.5244C23.3137 36.4425 23.653 37.0811 24.1319 37.4703C24.6209 37.8694 25.3493 38.0191 26.2374 37.8395C40.1577 34.4866 54.6267 34.7361 68.4572 38.4182C69.3453 38.6577 69.9839 38.508 70.4629 38.1488C70.9518 37.7796 71.2512 37.1709 71.2811 36.2628C71.2811 34.1573 71.2512 31.8722 71.341 29.6869C71.3011 28.7589 71.1414 27.8408 70.5327 27.0226ZM69.6247 34.5465C69.5947 35.245 69.5947 36.1331 69.1357 36.4025C68.6767 36.672 67.609 36.4025 66.7907 36.2229C53.9682 33.4189 40.5369 33.2393 27.6145 35.7938C26.7963 35.9435 25.7884 36.2229 25.3294 35.9136C24.9003 35.6442 24.9003 34.7261 24.9302 34.0576C24.9302 33.2992 24.9602 32.5009 24.9602 31.7425V31.6527C24.9901 30.8344 24.9901 30.0361 24.9901 29.2179C25.02 28.5194 25.3593 27.791 25.9381 27.1423C26.0878 26.9927 26.3073 26.833 26.5468 26.6833C27.2154 26.2542 27.9737 25.9848 28.7421 25.8651C42.7222 23.3704 52.9004 23.5201 66.5712 26.5336C67.7886 26.8729 68.1877 27.1124 68.7366 27.6612C69.2255 28.1502 69.4351 28.6391 69.5249 29.3676C69.5848 29.7069 69.5848 30.0361 69.5848 30.3754C69.5947 31.8922 69.6247 33.0497 69.6247 34.5465Z" fill="#0F3793"/>
<path d="M61.5218 32.1316C61.4918 32.0717 61.4918 32.0418 61.4619 31.9819C61.432 31.8921 61.3721 31.8023 61.3122 31.7125C61.2523 31.6227 61.1925 31.5329 61.1326 31.4431L61.0129 31.3233L60.8931 31.2036C60.5538 30.8643 60.1048 30.565 59.5859 30.3155C59.067 30.076 58.5182 29.8864 57.9394 29.7367L57.5104 29.6469C57.3607 29.617 57.2409 29.5871 57.0813 29.5871L56.6522 29.5272C56.5923 29.5272 56.5025 29.4973 56.4426 29.4973H56.2031L55.7441 29.4673C55.5944 29.4673 55.4348 29.4673 55.2851 29.4673C55.1354 29.4673 54.9758 29.4673 54.8261 29.4973C54.6764 29.4973 54.5167 29.5272 54.397 29.5571C53.479 29.7068 52.6607 30.0161 52.0221 30.4452C52.052 30.3854 52.082 30.2955 52.1418 30.2357C52.2616 30.0261 52.4113 29.8066 52.541 29.627C52.6308 29.5372 52.6907 29.4474 52.7505 29.3575C52.7805 29.3276 52.8104 29.2677 52.8703 29.2079L52.99 29.0881C53.0499 28.9983 53.1696 28.9085 53.2594 28.8187C53.3492 28.7289 53.4391 28.6391 53.5289 28.5493L53.6785 28.4295C53.7384 28.3996 53.7683 28.3397 53.8282 28.3098L53.9779 28.19C54.0378 28.1601 54.0677 28.1302 54.1276 28.0703C54.3371 27.9206 54.5567 27.8009 54.7662 27.7011C54.886 27.6412 55.0057 27.6113 55.1055 27.5514C55.1654 27.5215 55.2252 27.5215 55.2851 27.4915C55.345 27.4616 55.4049 27.4616 55.4647 27.4317L55.5545 27.4017C55.5845 27.3718 55.6443 27.3718 55.6743 27.3119C55.7042 27.282 55.7341 27.2521 55.7641 27.1922C55.7641 27.1622 55.794 27.1323 55.7641 27.0724C55.7341 27.0126 55.7042 26.9826 55.6144 26.9527C55.5845 26.9527 55.5545 26.9228 55.5246 26.9228C55.4647 26.8928 55.4049 26.8928 55.345 26.8928C55.2851 26.8928 55.2252 26.8928 55.1354 26.8928H55.0157H54.8959C54.5866 26.9228 54.2573 27.0126 53.918 27.1622C53.5788 27.3119 53.2794 27.5015 52.9401 27.7111L52.7306 27.8907C52.6707 27.9506 52.5809 28.0104 52.521 28.0703L52.3115 28.2499C52.2815 28.2799 52.2516 28.3098 52.2217 28.3397L52.1319 28.4295L51.9223 28.6391C51.8624 28.699 51.8026 28.7888 51.7427 28.8486C51.6828 28.9085 51.6229 28.9983 51.5631 29.0881C51.5032 29.1779 51.4433 29.2378 51.4134 29.3276C51.0142 29.9363 50.8047 30.545 50.8047 31.0938C50.8047 31.2136 50.8047 31.3333 50.8346 31.463C50.8346 31.5229 50.8646 31.6127 50.8945 31.6726C50.8945 31.7025 50.8945 31.7325 50.9244 31.7624C50.9544 31.8223 51.0142 31.8522 51.0741 31.9121C51.134 31.942 51.2238 31.972 51.3136 31.972C51.4034 31.972 51.4932 31.972 51.5531 31.942L51.613 31.9121C52.0121 31.7923 52.4312 31.6427 52.8304 31.5129C53.2295 31.3932 53.6187 31.3034 53.9879 31.2036C54.3571 31.1138 54.7463 31.0839 55.1155 31.024C55.2951 31.024 55.4847 30.994 55.6643 30.994C55.7541 30.994 55.8439 30.994 55.9337 30.994H56.2031C56.3828 30.994 56.6023 31.024 56.8118 31.024C57.0214 31.024 57.211 31.0539 57.4205 31.0839L57.7299 31.1437C57.8197 31.1437 57.9095 31.1737 58.0392 31.2036L58.3486 31.2635C58.4384 31.2934 58.5282 31.3233 58.618 31.3233C59.0171 31.4132 59.3764 31.5628 59.7156 31.7225C59.8953 31.8123 60.0848 31.9021 60.2345 31.9919C60.3243 32.0518 60.4141 32.0817 60.474 32.1416C60.5638 32.2015 60.6237 32.2613 60.7135 32.2913L60.8632 32.3811C60.9231 32.411 61.0129 32.441 61.0727 32.441C61.1625 32.441 61.2224 32.441 61.3122 32.411C61.3721 32.3811 61.432 32.3511 61.4619 32.3212C61.4918 32.2913 61.5218 32.2314 61.4918 32.1715C61.5517 32.2314 61.5517 32.2015 61.5218 32.1316Z" fill="#0F3793"/>
<path fill-rule="evenodd" clip-rule="evenodd" d="M41.9932 29.3079C41.9932 31.0342 40.5962 32.4412 38.8599 32.4412C37.1236 32.4412 35.7166 31.0342 35.7266 29.3079C35.7266 27.5816 37.1236 26.1746 38.8599 26.1746C40.5862 26.1746 41.9932 27.5716 41.9932 29.3079ZM38.1222 28.5491C38.1222 29.0181 37.743 29.3973 37.274 29.3973C36.805 29.3973 36.4258 29.0081 36.4258 28.5491C36.4258 28.0801 36.805 27.7009 37.274 27.7009C37.743 27.7009 38.1222 28.0801 38.1222 28.5491Z" fill="#0F3793"/>
<path fill-rule="evenodd" clip-rule="evenodd" d="M62.7294 43.3521L62.7294 43.3521C62.6909 43.5175 62.651 43.6891 62.6104 43.8666C62.1514 45.7226 61.393 48.2273 60.2355 50.7519C60.0304 51.2064 59.813 51.6606 59.5826 52.1114C59.6001 52.0708 59.6176 52.0302 59.6351 51.9894C57.2502 52.2388 52.7798 53.4263 49.6964 54.953C45.7436 56.9099 43.1207 59.2848 41.5311 60.8079C38.5225 59.4809 36.1442 57.0004 34.3209 54.3641C32.8541 52.2287 31.7664 50.0434 31.0579 48.3969C31.0109 48.2832 30.9646 48.1718 30.9195 48.0632L30.9195 48.0632C30.7349 47.6189 30.5695 47.2208 30.4492 46.9001C30.6169 46.9374 30.8001 46.963 31.0036 46.9916C31.127 47.0088 31.2578 47.0272 31.3972 47.0498C32.8176 47.2486 34.8849 47.4565 37.6248 47.426C35.5096 47.4571 34.2598 47.3689 34.2598 47.3689C34.2598 47.3689 35.7566 49.654 37.1236 51.2107C37.882 52.0588 38.9797 52.5179 40.1073 52.4879C43.4002 52.3682 51.5927 51.4801 61.7909 45.8821C61.7909 45.8821 63.0083 42.0702 62.0304 42.4694C52.8581 46.4348 43.4647 47.2827 38.2948 47.4127C43.9475 47.2388 52.1954 46.0593 63.0096 42.0704C62.9426 42.4352 62.8423 42.8665 62.7294 43.3521ZM44.5912 61.6914C45.6243 61.8407 46.7172 61.8556 47.872 61.7084C48.9019 61.5772 49.8677 61.3276 50.7728 60.9791C49.8126 61.2732 48.7512 61.4971 47.5709 61.6487C46.5377 61.7767 45.5423 61.7874 44.5912 61.6914Z" fill="#0F3793"/>
<path d="M29.5996 46.2717C29.5996 46.2717 34.2896 63.6345 48.12 62.8163C48.12 62.8163 60.4237 62.6965 64.3254 41.3123C64.3254 41.3023 45.0366 49.5247 29.5996 46.2717ZM49.8264 61.0101C48.4593 61.3794 47.3916 61.4392 46.1742 61.3494C35.7864 60.6509 31.9446 48.1876 31.9446 48.1876C45.8648 50.1035 62.3097 43.5575 62.3097 43.5575C59.2961 55.9909 53.5085 60.0023 49.8264 61.0101Z" fill="#0F3793"/>
</g>
<g filter="url(#filter0_dd_14996_184727)">
<path fill-rule="evenodd" clip-rule="evenodd" d="M8.55814 -0.000244141C3.83161 -0.000244141 0 3.58148 0 7.99975V77.9998C0 82.418 3.83161 85.9998 8.55814 85.9998H83.4419C88.1684 85.9998 92 82.418 92 77.9998V7.99976C92 3.58148 88.1684 -0.000244141 83.4419 -0.000244141H8.55814ZM83.4419 3.99976H8.55814C6.19487 3.99976 4.27907 5.79062 4.27907 7.99976V77.9998C4.27907 80.2089 6.19487 81.9998 8.55814 81.9998H83.4419C85.8051 81.9998 87.7209 80.2089 87.7209 77.9998V7.99976C87.7209 5.79062 85.8051 3.99976 83.4419 3.99976Z" fill="#409DF1"/>
</g>
<defs>
<filter id="filter0_dd_14996_184727" x="-4" y="-2.00024" width="100" height="94" filterUnits="userSpaceOnUse" color-interpolation-filters="sRGB">
<feFlood flood-opacity="0" result="BackgroundImageFix"/>
<feColorMatrix in="SourceAlpha" type="matrix" values="0 0 0 0 0 0 0 0 0 0 0 0 0 0 0 0 0 0 127 0" result="hardAlpha"/>
<feOffset dy="2"/>
<feGaussianBlur stdDeviation="2"/>
<feComposite in2="hardAlpha" operator="out"/>
<feColorMatrix type="matrix" values="0 0 0 0 0.113725 0 0 0 0 0.364706 0 0 0 0 0.945098 0 0 0 1 0"/>
<feBlend mode="normal" in2="BackgroundImageFix" result="effect1_dropShadow_14996_184727"/>
<feColorMatrix in="SourceAlpha" type="matrix" values="0 0 0 0 0 0 0 0 0 0 0 0 0 0 0 0 0 0 127 0" result="hardAlpha"/>
<feOffset dy="2"/>
<feGaussianBlur stdDeviation="2"/>
<feComposite in2="hardAlpha" operator="out"/>
<feColorMatrix type="matrix" values="0 0 0 0 0.113725 0 0 0 0 0.364706 0 0 0 0 0.945098 0 0 0 1 0"/>
<feBlend mode="normal" in2="effect1_dropShadow_14996_184727" result="effect2_dropShadow_14996_184727"/>
<feBlend mode="normal" in="SourceGraphic" in2="effect2_dropShadow_14996_184727" result="shape"/>
</filter>
<linearGradient id="paint0_linear_14996_184727" x1="49.8362" y1="-0.000244144" x2="49.5467" y2="85.6148" gradientUnits="userSpaceOnUse">
<stop offset="0.135858" stop-color="#1D5DF1"/>
<stop offset="0.563503" stop-color="#409DF1"/>
<stop offset="1" stop-color="#1D5DF1"/>
</linearGradient>
</defs>
</svg>
