<svg width="90" height="90" viewBox="0 0 90 90" fill="none" xmlns="http://www.w3.org/2000/svg">
<g clip-path="url(#clip0_15083_68538)">
<g filter="url(#filter0_i_15083_68538)">
<rect width="90" height="90" rx="8" fill="url(#paint0_linear_15083_68538)"/>
</g>
<g opacity="0.15">
<path fill-rule="evenodd" clip-rule="evenodd" d="M57.2201 71.7767C53.3552 72.759 49.338 72.8889 46.5243 72.6586C27.5977 70.9744 24.712 65.2338 24.1472 60.6331V38.2149C23.5823 34.0455 23.4591 29.9686 24.4655 26.0559C25.724 8.4002 37.838 2.74237 45.1784 1.9039L45.343 1.48118L44.3058 1.45037C31.5203 1.1731 20.9839 11.2577 20.6963 24.0842L20.645 26.5591C20.4499 26.744 20.2753 26.9391 20.1007 27.1548C19.4743 27.966 19.0943 29.0033 19.0635 29.948C19.0635 30.4975 19.0558 31.0546 19.0481 31.6117C19.0404 32.1688 19.0327 32.7259 19.0327 33.2753V33.3986C19.0019 34.4666 19.0019 35.5037 19.0019 36.5306V36.5308C18.9711 37.4755 19.3202 38.1328 19.8132 38.5333C19.9672 38.6668 20.1623 38.7592 20.3677 38.8311L19.9364 58.9079C19.9364 59.8218 20.0596 62.6973 20.2137 63.6113C21.6206 67.5034 23.8491 69.0335 27.8644 70.9128C31.8798 72.7921 37.0145 73.6445 42.4675 73.8293H42.5292H42.714C42.8989 73.8601 43.1556 73.8601 43.4637 73.8601C44.0901 73.8601 45.0041 73.8601 46.0618 73.8293C48.2287 73.7369 51.1041 73.4494 54.0207 72.7613C55.0877 72.4955 56.1673 72.1735 57.2201 71.7767ZM65.8868 -7.59639C65.9277 -7.70356 65.9649 -7.81066 65.9948 -7.91535L66.5904 -9.48657L65.1219 -8.95256C64.6803 -8.79852 64.1155 -8.57259 63.5199 -8.32613C61.6098 -7.54565 59.0321 -6.35439 56.3415 -4.65994C53.0087 -2.56223 49.5387 0.267378 47.0031 3.97177C47.003 3.97505 47.0028 3.97833 47.0026 3.9816C46.8613 6.49848 46.6573 10.1325 47.0685 11.8225C52.6976 -0.576545 60.6498 -5.79364 65.8868 -7.59639Z" fill="#12151D"/>
<path fill-rule="evenodd" clip-rule="evenodd" d="M24.084 26.3333L24.1456 23.5708C24.4229 10.7545 34.9594 0.659672 47.7551 0.936947L48.7923 0.967753L48.4123 1.94335C47.4059 4.57232 46.8411 7.48884 47.0362 10.6929H47.2211C48.9771 3.22703 54.5534 -1.87688 59.7908 -5.17337C62.4917 -6.86782 65.0591 -8.05908 66.9692 -8.83955C67.5648 -9.08602 68.1296 -9.31195 68.5712 -9.46599L70.0397 -10L69.4441 -8.42878C69.3825 -8.21312 69.2901 -7.98719 69.1976 -7.77153C68.6944 -6.36462 68.068 -4.38262 67.5648 -2.03092C66.5892 2.67248 66.1579 8.78279 68.3453 14.5542V14.585C69.7214 17.6248 70.4505 21.0137 70.3478 24.6183L70.2862 26.9391L68.8485 26.1279L68.8793 24.5874V24.5566C68.9717 21.1369 68.2837 17.9739 67 15.119V15.0882L66.9692 15.0266C64.6175 8.91629 65.1207 2.45682 66.1271 -2.339C66.5687 -4.37235 67.1027 -6.12842 67.5648 -7.5148C67.534 -7.5148 67.5032 -7.48399 67.5032 -7.48399C65.6547 -6.73432 63.149 -5.57388 60.5405 -3.94104C55.3031 -0.654818 49.9425 4.38747 48.5047 11.5966L48.3815 12.2231L45.6806 12.069L45.619 11.4426C45.3418 8.14609 45.7731 5.13714 46.687 2.41574C35.1545 2.69302 25.8093 11.9766 25.5628 23.6427L25.532 25.5836L24.084 26.3333ZM25.2753 38.1226L24.8337 58.4047C24.8029 59.2468 24.9261 62.0093 25.0802 62.7897C25.3985 64.4226 28.2123 67.2775 31.9093 69.0233C35.6371 70.7794 40.5665 71.6214 45.9579 71.8166H45.9887H46.0195C46.0503 71.8166 46.112 71.8166 46.2044 71.8166C46.3584 71.8166 46.6152 71.8166 46.9232 71.8474C47.5189 71.8474 48.3918 71.8474 49.4598 71.8166C51.565 71.7241 54.3481 71.4674 57.1413 70.8102C59.9346 70.1221 62.6868 69.0541 64.7304 67.3596C66.733 65.6652 68.0885 63.3751 68.1502 60.1813L68.6226 38.6463H70.0705L69.5982 60.2121C69.5365 63.8783 67.9653 66.5484 65.6444 68.4893C63.3543 70.3994 60.3762 71.529 57.4905 72.2479C54.574 72.9359 51.6883 73.2235 49.5317 73.3159C48.4637 73.3467 47.56 73.3467 46.9335 73.3467C46.6152 73.3467 46.3687 73.3467 46.1839 73.3159C46.0914 73.3159 46.0298 73.3159 45.999 73.3159H45.9374C40.4843 73.1311 35.3393 72.2787 31.3342 70.3994C27.3292 68.5201 25.1007 66.9797 23.6835 63.0978C23.5295 62.1838 23.4062 59.3084 23.4062 58.3944L23.8478 37.9274L25.2753 38.1226Z" fill="#12151D"/>
<path d="M71.0055 27.278C70.3791 26.4359 69.537 25.8711 68.6538 25.6144C54.6463 21.8866 40.0021 21.6915 25.9227 25.0188C25.0087 25.2036 24.1666 25.83 23.5402 26.6516C22.9137 27.4629 22.5338 28.5001 22.503 29.4449C22.503 30.5437 22.4722 31.6733 22.4722 32.7722V32.8954C22.4413 33.9634 22.4413 35.0007 22.4413 36.0276C22.4105 36.9724 22.7597 37.6296 23.2526 38.0301C23.7558 38.4409 24.5055 38.595 25.4195 38.4101C39.7453 34.9596 54.636 35.2163 68.8695 39.0057C69.7834 39.2522 70.4407 39.0982 70.9336 38.7285C71.4368 38.3485 71.7449 37.722 71.7757 36.7875C71.7757 34.6207 71.7449 32.269 71.8373 30.02C71.7962 29.0649 71.6319 28.1201 71.0055 27.278ZM70.071 35.0212C70.0402 35.74 70.0402 36.654 69.5678 36.9313C69.0954 37.2086 67.9966 36.9313 67.1545 36.7465C53.9582 33.8607 40.1356 33.6759 26.8367 36.3049C25.9946 36.4589 24.9574 36.7465 24.485 36.4281C24.0434 36.1508 24.0434 35.206 24.0742 34.518C24.0742 33.7375 24.105 32.9159 24.105 32.1355V32.043C24.1358 31.201 24.1358 30.3794 24.1358 29.5373C24.1666 28.8184 24.5158 28.0688 25.1114 27.4013C25.2654 27.2472 25.4914 27.0829 25.7378 26.9289C26.4259 26.4873 27.2064 26.21 27.9971 26.0868C42.3846 23.5194 52.8594 23.6735 66.9285 26.7748C68.1814 27.124 68.5922 27.3705 69.157 27.9353C69.6602 28.4385 69.8759 28.9417 69.9683 29.6913C70.0299 30.0405 70.0299 30.3794 70.0299 30.7286C70.0402 32.2895 70.071 33.4808 70.071 35.0212Z" fill="#12151D"/>
<path d="M61.7325 32.536C61.7017 32.4744 61.7017 32.4436 61.6709 32.3819C61.6401 32.2895 61.5785 32.1971 61.5168 32.1047C61.4552 32.0122 61.3936 31.9198 61.332 31.8274L61.2088 31.7042L61.0855 31.5809C60.7364 31.2318 60.2742 30.9237 59.7402 30.6669C59.2062 30.4205 58.6414 30.2254 58.0458 30.0713L57.6042 29.9789C57.4501 29.9481 57.3269 29.9173 57.1626 29.9173L56.721 29.8557C56.6594 29.8557 56.567 29.8249 56.5054 29.8249H56.2589L55.7865 29.794C55.6325 29.794 55.4681 29.794 55.3141 29.794C55.1601 29.794 54.9957 29.794 54.8417 29.8249C54.6877 29.8249 54.5234 29.8557 54.4001 29.8865C53.4553 30.0405 52.6132 30.3589 51.956 30.8004C51.9868 30.7388 52.0176 30.6464 52.0792 30.5848C52.2025 30.3691 52.3565 30.1432 52.49 29.9584C52.5824 29.8659 52.644 29.7735 52.7057 29.6811C52.7365 29.6503 52.7673 29.5887 52.8289 29.527L52.9521 29.4038C53.0138 29.3114 53.137 29.219 53.2294 29.1265C53.3218 29.0341 53.4143 28.9417 53.5067 28.8493L53.6607 28.726C53.7223 28.6952 53.7531 28.6336 53.8148 28.6028L53.9688 28.4796C54.0304 28.4487 54.0612 28.4179 54.1228 28.3563C54.3385 28.2023 54.5644 28.079 54.7801 27.9764C54.9033 27.9147 55.0266 27.8839 55.1292 27.8223C55.1909 27.7915 55.2525 27.7915 55.3141 27.7607C55.3757 27.7299 55.4373 27.7299 55.4989 27.6991L55.5914 27.6683C55.6222 27.6375 55.6838 27.6375 55.7146 27.5758C55.7454 27.545 55.7762 27.5142 55.807 27.4526C55.807 27.4218 55.8378 27.391 55.807 27.3294C55.7762 27.2678 55.7454 27.237 55.653 27.2061C55.6222 27.2061 55.5914 27.1753 55.5606 27.1753C55.499 27.1445 55.4373 27.1445 55.3757 27.1445C55.3141 27.1445 55.2525 27.1445 55.1601 27.1445H55.0368H54.9136C54.5952 27.1753 54.2564 27.2678 53.9072 27.4218C53.558 27.5758 53.2499 27.771 52.9008 27.9866L52.6851 28.1715C52.6235 28.2331 52.5311 28.2947 52.4695 28.3563L52.2538 28.5412C52.223 28.572 52.1922 28.6028 52.1614 28.6336L52.069 28.726L51.8533 28.9417C51.7917 29.0033 51.7301 29.0957 51.6685 29.1573C51.6068 29.219 51.5452 29.3114 51.4836 29.4038C51.422 29.4962 51.3604 29.5578 51.3296 29.6503C50.9188 30.2767 50.7031 30.9031 50.7031 31.468C50.7031 31.5912 50.7031 31.7144 50.7339 31.8479C50.7339 31.9095 50.7647 32.002 50.7956 32.0636C50.7956 32.0944 50.7956 32.1252 50.8264 32.156C50.8572 32.2176 50.9188 32.2484 50.9804 32.3101C51.042 32.3409 51.1344 32.3717 51.2269 32.3717C51.3193 32.3717 51.4117 32.3717 51.4733 32.3409L51.5349 32.3101C51.9457 32.1868 52.377 32.0328 52.7878 31.8993C53.1986 31.776 53.5991 31.6836 53.9791 31.5809C54.359 31.4885 54.7596 31.4577 55.1395 31.3961C55.3244 31.3961 55.5195 31.3653 55.7043 31.3653C55.7968 31.3653 55.8892 31.3653 55.9816 31.3653H56.2589C56.4437 31.3653 56.6697 31.3961 56.8853 31.3961C57.101 31.3961 57.2961 31.4269 57.5118 31.4577L57.8301 31.5193C57.9225 31.5193 58.015 31.5501 58.1485 31.5809L58.4668 31.6425C58.5592 31.6733 58.6517 31.7042 58.7441 31.7042C59.1549 31.7966 59.5246 31.9506 59.8737 32.1149C60.0586 32.2074 60.2537 32.2998 60.4077 32.3922C60.5002 32.4538 60.5926 32.4846 60.6542 32.5463C60.7466 32.6079 60.8083 32.6695 60.9007 32.7003L61.0547 32.7927C61.1163 32.8235 61.2088 32.8543 61.2704 32.8543C61.3628 32.8543 61.4244 32.8543 61.5168 32.8235C61.5785 32.7927 61.6401 32.7619 61.6709 32.7311C61.7017 32.7003 61.7325 32.6387 61.7017 32.5771C61.7633 32.6387 61.7633 32.6079 61.7325 32.536Z" fill="#12151D"/>
<path fill-rule="evenodd" clip-rule="evenodd" d="M41.6348 29.6296C41.6348 31.4062 40.1971 32.8542 38.4102 32.8542C36.6233 32.8542 35.1753 31.4062 35.1856 29.6296C35.1856 27.853 36.6233 26.405 38.4102 26.405C40.1868 26.405 41.6348 27.8427 41.6348 29.6296ZM37.6501 28.8492C37.6501 29.3319 37.2599 29.7221 36.7772 29.7221C36.2945 29.7221 35.9043 29.3216 35.9043 28.8492C35.9043 28.3666 36.2945 27.9763 36.7772 27.9763C37.2599 27.9763 37.6501 28.3666 37.6501 28.8492Z" fill="#12151D"/>
<path fill-rule="evenodd" clip-rule="evenodd" d="M62.9747 44.0835L62.9746 44.0836C62.9351 44.2538 62.894 44.4303 62.8523 44.6129C62.3799 46.523 61.5994 49.1006 60.4082 51.6988C60.1985 52.1635 59.9762 52.6278 59.7408 53.0888C59.7576 53.05 59.7743 53.0111 59.791 52.9722C57.3367 53.2289 52.7359 54.451 49.5627 56.0222C45.4944 58.0363 42.795 60.4806 41.1591 62.0481C38.0627 60.6824 35.6149 58.1296 33.7384 55.4163C32.2288 53.2187 31.1095 50.9697 30.3803 49.2752C30.332 49.1583 30.2844 49.0438 30.238 48.9321L30.2378 48.9318C30.0479 48.4745 29.8777 48.0649 29.7539 47.7348C29.9265 47.7732 30.115 47.7996 30.3244 47.8289C30.4514 47.8467 30.5861 47.8656 30.7295 47.8888C32.1901 48.0933 34.3155 48.3071 37.132 48.2761C34.9594 48.3079 33.6758 48.2172 33.6758 48.2172C33.6758 48.2172 35.2162 50.5689 36.6231 52.1709C37.4036 53.0438 38.5332 53.5162 39.6937 53.4854C43.0826 53.3622 51.5138 52.4482 62.0092 46.6871C62.0092 46.6871 63.262 42.7641 62.2556 43.1749C52.8181 47.2551 43.1531 48.1282 37.8318 48.2622C43.6491 48.0828 52.1361 46.8686 63.2631 42.7644C63.1941 43.1398 63.0909 43.5838 62.9747 44.0835ZM44.3012 62.9562C45.3664 63.1107 46.4934 63.1264 47.6843 62.9747C48.7441 62.8396 49.7379 62.5828 50.6693 62.2242C49.6814 62.5267 48.5895 62.757 47.3753 62.913C46.3093 63.0451 45.2823 63.0558 44.3012 62.9562Z" fill="#12151D"/>
<path d="M28.8809 47.0878C28.8809 47.0878 33.7075 64.9566 47.9409 64.1145C47.9409 64.1145 60.6031 63.9913 64.6185 41.9839C64.6185 41.9736 44.7677 50.4356 28.8809 47.0878ZM49.697 62.2558C48.2901 62.6357 47.1913 62.6973 45.9384 62.6049C35.2479 61.8861 31.2942 49.0595 31.2942 49.0595C45.62 51.0313 62.5441 44.2945 62.5441 44.2945C59.4427 57.0902 53.4864 61.2185 49.697 62.2558Z" fill="#12151D"/>
</g>
<g filter="url(#filter1_dd_15083_68538)">
<path d="M16.4131 50V47.2188L22.249 42.1094C22.6865 41.7135 23.0589 41.3516 23.3662 41.0234C23.6735 40.6901 23.9079 40.3568 24.0693 40.0234C24.2308 39.6849 24.3115 39.3177 24.3115 38.9219C24.3115 38.4792 24.2152 38.1016 24.0225 37.7891C23.8298 37.4714 23.5641 37.2266 23.2256 37.0547C22.887 36.8828 22.499 36.7969 22.0615 36.7969C21.6188 36.7969 21.2308 36.888 20.8975 37.0703C20.5641 37.2474 20.3037 37.5052 20.1162 37.8438C19.9339 38.1823 19.8428 38.5937 19.8428 39.0781H16.1787C16.1787 37.9896 16.4235 37.0495 16.9131 36.2578C17.4027 35.4661 18.0902 34.8568 18.9756 34.4297C19.8662 33.9974 20.9001 33.7812 22.0771 33.7812C23.2907 33.7812 24.3454 33.9844 25.2412 34.3906C26.137 34.7969 26.8298 35.3646 27.3193 36.0937C27.8141 36.8177 28.0615 37.6589 28.0615 38.6172C28.0615 39.2266 27.9391 39.8307 27.6943 40.4297C27.4495 41.0286 27.0094 41.6901 26.374 42.4141C25.7438 43.138 24.848 44.0052 23.6865 45.0156L21.7725 46.7812V46.8828H28.2568V50H16.4131ZM36.5674 50.2187C35.4007 50.2187 34.3643 50.0078 33.458 49.5859C32.5518 49.1641 31.8356 48.5833 31.3096 47.8437C30.7887 47.1042 30.5179 46.2552 30.4971 45.2969H34.2471C34.2783 45.8854 34.5179 46.3594 34.9658 46.7187C35.4137 47.0729 35.9476 47.25 36.5674 47.25C37.0518 47.25 37.4814 47.1432 37.8564 46.9297C38.2314 46.7161 38.5257 46.4167 38.7393 46.0312C38.9528 45.6406 39.057 45.1927 39.0518 44.6875C39.057 44.1719 38.9502 43.7214 38.7314 43.3359C38.5179 42.9505 38.221 42.651 37.8408 42.4375C37.4658 42.2187 37.0335 42.1094 36.5439 42.1094C36.0804 42.1042 35.6403 42.2057 35.2236 42.4141C34.8122 42.6224 34.4997 42.9062 34.2861 43.2656L30.8721 42.625L31.5674 34H41.833V37.1172H34.7471L34.3799 40.8906H34.4736C34.7393 40.4479 35.1663 40.0833 35.7549 39.7969C36.3486 39.5052 37.0231 39.3594 37.7783 39.3594C38.7367 39.3594 39.5908 39.5833 40.3408 40.0312C41.096 40.474 41.6898 41.0885 42.1221 41.875C42.5596 42.6615 42.7783 43.5625 42.7783 44.5781C42.7783 45.6771 42.5179 46.651 41.9971 47.5C41.4814 48.349 40.7575 49.0156 39.8252 49.5C38.8981 49.9792 37.8122 50.2187 36.5674 50.2187ZM51.5186 50.3906C50.1227 50.3906 48.9196 50.0599 47.9092 49.3984C46.8988 48.7318 46.1201 47.776 45.5732 46.5313C45.0264 45.2812 44.7555 43.7786 44.7607 42.0234C44.766 40.2682 45.0394 38.7786 45.5811 37.5547C46.1279 36.3255 46.904 35.3906 47.9092 34.75C48.9196 34.1042 50.1227 33.7812 51.5186 33.7812C52.9144 33.7812 54.1175 34.1042 55.1279 34.75C56.1436 35.3906 56.9248 36.3255 57.4717 37.5547C58.0186 38.7839 58.2894 40.2734 58.2842 42.0234C58.2842 43.7839 58.0107 45.2891 57.4639 46.5391C56.917 47.7891 56.1383 48.7448 55.1279 49.4062C54.1227 50.0625 52.9196 50.3906 51.5186 50.3906ZM51.5186 47.2266C52.3519 47.2266 53.0264 46.8021 53.542 45.9531C54.0576 45.099 54.3128 43.7891 54.3076 42.0234C54.3076 40.8672 54.1904 39.9141 53.9561 39.1641C53.7217 38.4089 53.3962 37.8464 52.9795 37.4766C52.5628 37.1068 52.0758 36.9219 51.5186 36.9219C50.6904 36.9219 50.0212 37.3411 49.5107 38.1797C49.0003 39.013 48.7425 40.2943 48.7373 42.0234C48.7321 43.1953 48.8441 44.1667 49.0732 44.9375C49.3076 45.7083 49.6357 46.2839 50.0576 46.6641C50.4795 47.0391 50.9665 47.2266 51.5186 47.2266ZM60.5303 50V34H64.3975V40.7656H64.6084L69.8975 34H74.4521L68.7803 41.1406L74.5537 50H69.9287L65.9443 43.7109L64.3975 45.6641V50H60.5303Z" fill="white"/>
</g>
<path fill-rule="evenodd" clip-rule="evenodd" d="M8 0C3.58172 0 0 3.58172 0 8V76C0 80.4183 3.58172 84 8 84H82C86.4183 84 90 80.4183 90 76V8C90 3.58172 86.4183 0 82 0H8ZM8 4C5.79086 4 4 5.79086 4 8V76C4 78.2091 5.79086 80 8 80H82C84.2091 80 86 78.2091 86 76V8C86 5.79086 84.2091 4 82 4H8Z" fill="#FF7236"/>
</g>
<defs>
<filter id="filter0_i_15083_68538" x="0" y="0" width="90" height="90" filterUnits="userSpaceOnUse" color-interpolation-filters="sRGB">
<feFlood flood-opacity="0" result="BackgroundImageFix"/>
<feBlend mode="normal" in="SourceGraphic" in2="BackgroundImageFix" result="shape"/>
<feColorMatrix in="SourceAlpha" type="matrix" values="0 0 0 0 0 0 0 0 0 0 0 0 0 0 0 0 0 0 127 0" result="hardAlpha"/>
<feOffset dy="-6"/>
<feComposite in2="hardAlpha" operator="arithmetic" k2="-1" k3="1"/>
<feColorMatrix type="matrix" values="0 0 0 0 0.941176 0 0 0 0 0 0 0 0 0 0.0901961 0 0 0 1 0"/>
<feBlend mode="normal" in2="shape" result="effect1_innerShadow_15083_68538"/>
</filter>
<filter id="filter1_dd_15083_68538" x="6.17969" y="25.7812" width="78.375" height="36.6094" filterUnits="userSpaceOnUse" color-interpolation-filters="sRGB">
<feFlood flood-opacity="0" result="BackgroundImageFix"/>
<feColorMatrix in="SourceAlpha" type="matrix" values="0 0 0 0 0 0 0 0 0 0 0 0 0 0 0 0 0 0 127 0" result="hardAlpha"/>
<feOffset dy="2"/>
<feComposite in2="hardAlpha" operator="out"/>
<feColorMatrix type="matrix" values="0 0 0 0 0.741176 0 0 0 0 0 0 0 0 0 0 0 0 0 1 0"/>
<feBlend mode="normal" in2="BackgroundImageFix" result="effect1_dropShadow_15083_68538"/>
<feColorMatrix in="SourceAlpha" type="matrix" values="0 0 0 0 0 0 0 0 0 0 0 0 0 0 0 0 0 0 127 0" result="hardAlpha"/>
<feOffset dy="2"/>
<feGaussianBlur stdDeviation="5"/>
<feComposite in2="hardAlpha" operator="out"/>
<feColorMatrix type="matrix" values="0 0 0 0 0.741176 0 0 0 0 0 0 0 0 0 0 0 0 0 0.5 0"/>
<feBlend mode="normal" in2="effect1_dropShadow_15083_68538" result="effect2_dropShadow_15083_68538"/>
<feBlend mode="normal" in="SourceGraphic" in2="effect2_dropShadow_15083_68538" result="shape"/>
</filter>
<linearGradient id="paint0_linear_15083_68538" x1="48.7528" y1="-2.98039e-09" x2="48.4696" y2="83.7538" gradientUnits="userSpaceOnUse">
<stop offset="0.130023" stop-color="#FF0505"/>
<stop offset="1" stop-color="#FF5005"/>
</linearGradient>
<clipPath id="clip0_15083_68538">
<rect width="90" height="90" fill="white"/>
</clipPath>
</defs>
</svg>
